<svg width="16" height="16" viewBox="0 0 16 16" fill="none" xmlns="http://www.w3.org/2000/svg">
<path fill-rule="evenodd" clip-rule="evenodd" d="M10.072 11.0456C8.83376 12.035 7.2637 12.5127 5.68427 12.3806C4.10483 12.2485 2.63593 11.5167 1.57925 10.3353C0.522569 9.15405 -0.0416767 7.61297 0.00240085 6.02864C0.0464784 4.4443 0.695533 2.93699 1.81626 1.81626C2.93699 0.695533 4.4443 0.0464784 6.02864 0.00240085C7.61297 -0.0416767 9.15405 0.522569 10.3354 1.57925C11.5167 2.63593 12.2485 4.10483 12.3806 5.68427C12.5127 7.2637 12.035 8.83376 11.0456 10.072L15.7817 14.8071C15.8493 14.8701 15.9036 14.9462 15.9413 15.0307C15.9789 15.1152 15.9992 15.2064 16.0008 15.2989C16.0024 15.3914 15.9854 15.4833 15.9508 15.5691C15.9161 15.6549 15.8646 15.7328 15.7991 15.7982C15.7337 15.8636 15.6558 15.9152 15.57 15.9499C15.4842 15.9845 15.3924 16.0015 15.2999 15.9999C15.2074 15.9983 15.1161 15.978 15.0316 15.9404C14.9471 15.9027 14.8711 15.8484 14.808 15.7807L10.072 11.0456ZM2.79253 9.61088C2.11835 8.93663 1.65919 8.07767 1.47305 7.14254C1.28692 6.20741 1.38217 5.23809 1.74678 4.35708C2.11138 3.47607 2.72897 2.72292 3.5215 2.19281C4.31402 1.6627 5.24591 1.37942 6.19938 1.37878C7.15285 1.37814 8.08512 1.66016 8.87836 2.18921C9.67159 2.71825 10.2902 3.47057 10.656 4.35109C11.0218 5.2316 11.1183 6.2008 10.9335 7.13617C10.7486 8.07155 10.2906 8.93113 9.61731 9.60628L9.61272 9.61088L9.60812 9.61455C8.70344 10.5171 7.47749 11.0237 6.19956 11.023C4.92164 11.0223 3.69623 10.5144 2.79253 9.61088Z" fill="#D37C91"/>
</svg>
