<svg width="16" height="16" viewBox="0 0 16 16" fill="none" xmlns="http://www.w3.org/2000/svg">
<path fill-rule="evenodd" clip-rule="evenodd" d="M0.440932 0.0254415C0.766807 -0.0709713 1.10913 0.115067 1.20554 0.440969L1.65765 1.96937H13.6801C15.1903 1.96937 16.3423 3.37718 15.907 4.84971C15.907 4.84978 15.907 4.84963 15.907 4.84971L14.55 9.44453C14.2598 10.4233 13.3427 11.077 12.3231 11.077H4.80956C3.7895 11.077 2.87125 10.4234 2.58189 9.44472L0.0254393 0.79011C-0.0709653 0.464208 0.115057 0.121854 0.440932 0.0254415ZM2.02129 3.20013L3.76204 9.09573C3.88946 9.5267 4.30853 9.84622 4.80956 9.84622H12.3231C12.8228 9.84622 13.2414 9.52797 13.3698 9.09569C13.3699 9.09555 13.3698 9.09582 13.3698 9.09569L14.7268 4.50108C14.9115 3.87648 14.4309 3.20013 13.6801 3.20013H2.02129ZM3.82258 12.8485C4.16877 12.5022 4.6383 12.3077 5.12789 12.3077C5.61747 12.3077 6.087 12.5022 6.43319 12.8485C6.77938 13.1947 6.97387 13.6642 6.97387 14.1539C6.97387 14.6435 6.77938 15.1131 6.43319 15.4593C6.087 15.8055 5.61747 16 5.12789 16C4.6383 16 4.16877 15.8055 3.82258 15.4593C3.47639 15.1131 3.2819 14.6435 3.2819 14.1539C3.2819 13.6642 3.47639 13.1947 3.82258 12.8485ZM5.12789 13.5385C4.96469 13.5385 4.80818 13.6033 4.69278 13.7187C4.57739 13.8341 4.51256 13.9907 4.51256 14.1539C4.51256 14.3171 4.57739 14.4736 4.69278 14.589C4.80818 14.7044 4.96469 14.7692 5.12789 14.7692C5.29108 14.7692 5.44759 14.7044 5.56299 14.589C5.67838 14.4736 5.74321 14.3171 5.74321 14.1539C5.74321 13.9907 5.67838 13.8341 5.56299 13.7187C5.44759 13.6033 5.29108 13.5385 5.12789 13.5385ZM10.3861 12.8485C10.7323 12.5022 11.2018 12.3077 11.6914 12.3077C12.181 12.3077 12.6505 12.5022 12.9967 12.8485C13.3429 13.1947 13.5374 13.6642 13.5374 14.1539C13.5374 14.6435 13.3429 15.1131 12.9967 15.4593C12.6505 15.8055 12.181 16 11.6914 16C11.2018 16 10.7323 15.8055 10.3861 15.4593C10.0399 15.1131 9.84539 14.6435 9.84539 14.1539C9.84539 13.6642 10.0399 13.1947 10.3861 12.8485ZM11.6914 13.5385C11.5282 13.5385 11.3717 13.6033 11.2563 13.7187C11.1409 13.8341 11.076 13.9907 11.076 14.1539C11.076 14.3171 11.1409 14.4736 11.2563 14.589C11.3717 14.7044 11.5282 14.7692 11.6914 14.7692C11.8546 14.7692 12.0111 14.7044 12.1265 14.589C12.2419 14.4736 12.3067 14.3171 12.3067 14.1539C12.3067 13.9907 12.2419 13.8341 12.1265 13.7187C12.0111 13.6033 11.8546 13.5385 11.6914 13.5385Z" fill="#D37C91"/>
</svg>
