<svg width="14" height="16" viewBox="0 0 14 16" fill="none" xmlns="http://www.w3.org/2000/svg">
<path d="M6.77061 0C7.6193 0 8.43323 0.337142 9.03335 0.937258C9.63347 1.53737 9.97061 2.35131 9.97061 3.2H11.5986C12.0132 3.19995 12.4115 3.36079 12.7098 3.64865C13.0082 3.93651 13.1831 4.32891 13.1978 4.7432L13.5402 14.3432C13.5478 14.5579 13.5121 14.772 13.4353 14.9726C13.3584 15.1732 13.2419 15.3563 13.0927 15.5109C12.9435 15.6655 12.7647 15.7885 12.567 15.8725C12.3693 15.9566 12.1567 15.9999 11.9418 16H1.59941C1.38456 15.9999 1.17193 15.9566 0.974201 15.8725C0.776469 15.7885 0.597687 15.6655 0.448517 15.5109C0.299347 15.3563 0.182845 15.1732 0.10596 14.9726C0.0290749 14.772 -0.00661848 14.5579 0.00100858 14.3432L0.343409 4.7432C0.358125 4.32891 0.533062 3.93651 0.831368 3.64865C1.12967 3.36079 1.52806 3.19995 1.94261 3.2H3.57061C3.57061 2.35131 3.90775 1.53737 4.50787 0.937258C5.10798 0.337142 5.92192 0 6.77061 0ZM3.57061 4.8H1.94261L1.59941 14.4H11.9418L11.5986 4.8H9.97061V5.6C9.97038 5.8039 9.89231 6.00003 9.75233 6.14829C9.61235 6.29656 9.42105 6.38579 9.21749 6.39774C9.01394 6.40969 8.81351 6.34346 8.65714 6.21259C8.50078 6.08172 8.40029 5.89608 8.37621 5.6936L8.37061 5.6V4.8H5.17061V5.6C5.17038 5.8039 5.09231 6.00003 4.95233 6.14829C4.81235 6.29656 4.62105 6.38579 4.41749 6.39774C4.21394 6.40969 4.01351 6.34346 3.85714 6.21259C3.70078 6.08172 3.60029 5.89608 3.57621 5.6936L3.57061 5.6V4.8ZM6.77061 1.6C6.36695 1.59987 5.97816 1.75233 5.68217 2.0268C5.38619 2.30127 5.20488 2.67748 5.17461 3.08L5.17061 3.2H8.37061C8.37061 2.77565 8.20204 2.36869 7.90198 2.06863C7.60192 1.76857 7.19496 1.6 6.77061 1.6Z" fill="white"/>
</svg>
