<svg width="80" height="80" viewBox="0 0 80 80" fill="none" xmlns="http://www.w3.org/2000/svg">
<g clip-path="url(#clip0_66_7818)">
<path d="M40.0014 0H39.9986C17.908 0 0 17.908 0 39.9986V40.0014C0 62.092 17.908 80 39.9986 80H40.0014C62.092 80 80 62.092 80 40.0014V39.9986C80 17.908 62.092 0 40.0014 0Z" fill="white"/>
<path d="M49.4224 21.1418H54.0395V11.416H45.8431C37.48 11.416 32.0148 16.4845 32.0148 25.6612V33.7282H23.8127V44.3107H32.0148V69.699H43.457V44.3107H51.9868L53.6111 33.7282H43.457V26.86C43.457 23.965 44.8743 21.1418 49.4224 21.1418Z" fill="#D17D91"/>
</g>
<defs>
<clipPath id="clip0_66_7818">
<rect width="80" height="80" fill="white"/>
</clipPath>
</defs>
</svg>
