<svg width="80" height="80" viewBox="0 0 80 80" fill="none" xmlns="http://www.w3.org/2000/svg">
<g clip-path="url(#clip0_66_7821)">
<path d="M80 40C80 17.9086 62.0914 0 40 0C17.9086 0 0 17.9086 0 40C0 62.0914 17.9086 80 40 80C62.0914 80 80 62.0914 80 40Z" fill="white"/>
<path d="M67.5505 26.3019C66.8955 23.8539 64.9686 21.924 62.5177 21.2691C58.0788 20.0786 40.2822 20.0786 40.2822 20.0786C40.2822 20.0786 22.4857 20.0786 18.0467 21.2691C15.5988 21.924 13.6689 23.851 13.014 26.3019C11.8235 30.7408 11.8235 40 11.8235 40C11.8235 40 11.8235 49.2592 13.014 53.6982C13.6689 56.1461 15.5959 58.076 18.0467 58.7309C22.4857 59.9214 40.2822 59.9214 40.2822 59.9214C40.2822 59.9214 58.0788 59.9214 62.5177 58.7309C64.9657 58.076 66.8955 56.1491 67.5505 53.6982C68.741 49.2592 68.741 40 68.741 40C68.741 40 68.741 30.7408 67.5505 26.3019ZM34.5916 48.5374V31.4627L49.3784 40L34.5916 48.5374Z" fill="#D17D91"/>
</g>
<defs>
<clipPath id="clip0_66_7821">
<rect width="80" height="80" fill="white"/>
</clipPath>
</defs>
</svg>
