<svg width="80" height="80" viewBox="0 0 80 80" fill="none" xmlns="http://www.w3.org/2000/svg">
<g clip-path="url(#clip0_66_7824)">
<path d="M80 40C80 17.9086 62.0914 0 40 0C17.9086 0 0 17.9086 0 40C0 62.0914 17.9086 80 40 80C62.0914 80 80 62.0914 80 40Z" fill="white"/>
<path d="M40.0001 17.4821C47.3334 17.4821 48.2019 17.5108 51.0979 17.6431C53.7753 17.7639 55.2305 18.2125 56.1968 18.5893C57.4794 19.0868 58.3939 19.6821 59.3544 20.6426C60.315 21.6032 60.9103 22.5177 61.4078 23.8003C61.7845 24.7694 62.2303 26.2217 62.3539 28.8991C62.4862 31.7951 62.515 32.6636 62.515 39.997C62.515 47.3304 62.4862 48.1989 62.3539 51.0948C62.2332 53.7723 61.7845 55.2274 61.4078 56.1937C60.9103 57.4763 60.315 58.3908 59.3544 59.3514C58.3939 60.3119 57.4794 60.9072 56.1968 61.4047C55.2276 61.7815 53.7753 62.2272 51.0979 62.3509C48.2019 62.4832 47.3334 62.5119 40.0001 62.5119C32.6667 62.5119 31.7982 62.4832 28.9022 62.3509C26.2248 62.2301 24.7696 61.7815 23.8034 61.4047C22.5207 60.9072 21.6062 60.3119 20.6457 59.3514C19.6852 58.3908 19.0899 57.4763 18.5923 56.1937C18.2156 55.2245 17.7699 53.7723 17.6462 51.0948C17.5139 48.1989 17.4851 47.3304 17.4851 39.997C17.4851 32.6636 17.5139 31.7951 17.6462 28.8991C17.767 26.2217 18.2156 24.7666 18.5923 23.8003C19.0899 22.5177 19.6852 21.6032 20.6457 20.6426C21.6062 19.6821 22.5207 19.0868 23.8034 18.5893C24.7725 18.2125 26.2248 17.7668 28.9022 17.6431C31.7982 17.5108 32.6667 17.4821 40.0001 17.4821ZM40.0001 12.5356C32.5401 12.5356 31.6055 12.5673 28.675 12.6996C25.7503 12.8319 23.7545 13.2977 22.0088 13.9764C20.2028 14.6781 18.67 15.6185 17.1429 17.1456C15.6159 18.6727 14.6783 20.2055 13.9738 22.0115C13.2951 23.76 12.8292 25.7559 12.6969 28.6777C12.5646 31.6082 12.533 32.5428 12.533 40.0028C12.533 47.4627 12.5646 48.3973 12.6969 51.3278C12.8292 54.2525 13.2951 56.2483 13.9738 57.994C14.6755 59.8 15.6159 61.3328 17.1429 62.8599C18.67 64.387 20.2028 65.3245 22.0088 66.0291C23.7573 66.7078 25.7532 67.1736 28.675 67.3059C31.6055 67.4382 32.5401 67.4699 40.0001 67.4699C47.46 67.4699 48.3946 67.4382 51.3251 67.3059C54.2498 67.1736 56.2457 66.7078 57.9913 66.0291C59.7973 65.3274 61.3301 64.387 62.8572 62.8599C64.3843 61.3328 65.3218 59.8 66.0264 57.994C66.7051 56.2455 67.171 54.2496 67.3032 51.3278C67.4355 48.3973 67.4672 47.4627 67.4672 40.0028C67.4672 32.5428 67.4355 31.6082 67.3032 28.6777C67.171 25.753 66.7051 23.7572 66.0264 22.0115C65.3247 20.2055 64.3843 18.6727 62.8572 17.1456C61.3301 15.6185 59.7973 14.681 57.9913 13.9764C56.2428 13.2977 54.247 12.8319 51.3251 12.6996C48.3946 12.5673 47.46 12.5356 40.0001 12.5356Z" fill="#D17D91"/>
<path d="M40.0001 25.897C32.2094 25.897 25.897 32.2123 25.897 40.0001C25.897 47.7878 32.2123 54.1032 40.0001 54.1032C47.7878 54.1032 54.1032 47.7878 54.1032 40.0001C54.1032 32.2123 47.7878 25.897 40.0001 25.897ZM40.0001 49.1539C34.9444 49.1539 30.8463 45.0558 30.8463 40.0001C30.8463 34.9444 34.9444 30.8463 40.0001 30.8463C45.0558 30.8463 49.1539 34.9444 49.1539 40.0001C49.1539 45.0558 45.0558 49.1539 40.0001 49.1539Z" fill="#D17D91"/>
<path d="M54.6609 28.6349C56.4811 28.6349 57.9566 27.1593 57.9566 25.3392C57.9566 23.519 56.4811 22.0435 54.6609 22.0435C52.8408 22.0435 51.3652 23.519 51.3652 25.3392C51.3652 27.1593 52.8408 28.6349 54.6609 28.6349Z" fill="#D17D91"/>
</g>
<defs>
<clipPath id="clip0_66_7824">
<rect width="80" height="80" fill="white"/>
</clipPath>
</defs>
</svg>
